# xmcd
#
# Track frame offsets:
#	150
#	14169
#	29318
#	42842
#	62498
#	75614
#	88894
#	105045
#	121503
#	138353
#	153687
#	168190
#	184116
#	197185
#	211858
#	227078
#	242456
#	257916
#	272259
#	289250
#
# Disc length: 4120 seconds
#
# Revision: 0
# Processed by: cddbd v1.5.2PL0 Copyright (c) Steve Scherf et al.
# Submitted via: EZCDAudioConverter 4.0.5.1
#
DISCID=07101614
DTITLE=ERG Music - Nu Country Traxx Volume 243 US
DYEAR=2019
DGENRE=Country
TTITLE0=Old Dominion - One Man Band
TTITLE1=Blanco Brown - The Git Up
TTITLE2=Trisha Yearwood - Every Girl In This Town
TTITLE3=Cody Johnson - Nothin' On You
TTITLE4=Jon Langston\n - Now You Know
TTITLE5=Chase Rice\n - Lonely If You Are
TTITLE6=Ingrid Andress\n - More Hearts Than Mine
TTITLE7=Thompson Square\n - Masterpiece
TTITLE8=Teddy Robb - Really Shouldn't Drink Around You
TTITLE9=Lockeland\n - Drive
TTITLE10=Walker Hayes - Don't Let Her
TTITLE11=Casey Donahew - Let's Make A Love Song
TTITLE12=Seth Cook - Slippin'
TTITLE13=Justin Tyler - Raise Your Cups
TTITLE14=Tanya Tucker - Hard Luck
TTITLE15=Eric Burgett - Swing Low, Sweet Old Cadillac
TTITLE16=Eileen Carey - Meet Me Halfway
TTITLE17=Celeste Kellogg - There's A Beach Somewhere
TTITLE18=Jess Moskaluke - Days Go By
TTITLE19=Black Mountain Whiskey Rebellion - Bloody Bill
EXTD=
EXTT0=
EXTT1=
EXTT2=
EXTT3=
EXTT4=
EXTT5=
EXTT6=
EXTT7=
EXTT8=
EXTT9=
EXTT10=
EXTT11=
EXTT12=
EXTT13=
EXTT14=
EXTT15=
EXTT16=
EXTT17=
EXTT18=
EXTT19=
PLAYORDER=
